# xmcd CD database file
#
# Track frame offsets:
#	150
#	17560
#	38079
#	60309
#	78272
#	96647
#	114833
#	132420
#	149979
#	167966
#	183161
#	201989
#
# Disc length: 2946 seconds
#
# Revision: 1
# Processed by: cddbd v1.5.1PL2 Copyright (c) Steve Scherf et al.
# Submitted via: CDex 1.51
#
DISCID=a70b800c
DTITLE=Pochy Familia y Su Cocoband - Pochy Familia
DYEAR=2004
DGENRE=Merengue
TTITLE0=La Barriguita
TTITLE1=Amor de Lejos
TTITLE2=Cuando Eramos Novios...Y En El Matrimonio
TTITLE3=Cosas de Ella (Panti Negro)
TTITLE4=Que Lo Revisen Bien
TTITLE5=Coco Reggaeton
TTITLE6=Dominicanita
TTITLE7=Ella Cree Que Ta'Buena
TTITLE8=El Divorcio
TTITLE9=Loquito Por Ti
TTITLE10=Las Mujeres De Los Ta
TTITLE11=La Barriguita (Version Discoteca)
EXTD=YEAR: 2004
EXTT0=
EXTT1=
EXTT2=
EXTT3=
EXTT4=
EXTT5=
EXTT6=
EXTT7=
EXTT8=
EXTT9=
EXTT10=
EXTT11=
PLAYORDER=
